<mxfile host="app.diagrams.net" agent="Mozilla/5.0 (Macintosh; Intel Mac OS X 10_15_7) AppleWebKit/537.36 (KHTML, like Gecko) Chrome/131.0.0.0 Safari/537.36" version="24.9.1">
  <diagram name="Page-1" id="HMI3SVoRCVUTfBUXNwFo">
    <mxGraphModel dx="977" dy="684" grid="1" gridSize="10" guides="1" tooltips="1" connect="1" arrows="1" fold="1" page="1" pageScale="1" pageWidth="827" pageHeight="1169" math="0" shadow="0">
      <root>
        <mxCell id="0" />
        <mxCell id="1" parent="0" />
        <mxCell id="vRPE25cxpCKMiyRxNmtr-1" value="" style="endArrow=none;html=1;rounded=0;" edge="1" parent="1" source="vRPE25cxpCKMiyRxNmtr-4">
          <mxGeometry width="50" height="50" relative="1" as="geometry">
            <mxPoint x="70" y="222" as="sourcePoint" />
            <mxPoint x="690" y="222" as="targetPoint" />
          </mxGeometry>
        </mxCell>
        <mxCell id="vRPE25cxpCKMiyRxNmtr-2" value="" style="endArrow=none;html=1;rounded=0;" edge="1" parent="1" source="vRPE25cxpCKMiyRxNmtr-9" target="vRPE25cxpCKMiyRxNmtr-3">
          <mxGeometry width="50" height="50" relative="1" as="geometry">
            <mxPoint x="70" y="222" as="sourcePoint" />
            <mxPoint x="690" y="222" as="targetPoint" />
          </mxGeometry>
        </mxCell>
        <mxCell id="vRPE25cxpCKMiyRxNmtr-3" value="" style="shape=waypoint;sketch=0;fillStyle=solid;size=6;pointerEvents=1;points=[];fillColor=#f8cecc;resizable=0;rotatable=0;perimeter=centerPerimeter;snapToPoint=1;strokeColor=#b85450;strokeWidth=5;" vertex="1" parent="1">
          <mxGeometry x="390" y="212" width="20" height="20" as="geometry" />
        </mxCell>
        <mxCell id="vRPE25cxpCKMiyRxNmtr-5" value="" style="endArrow=none;html=1;rounded=0;" edge="1" parent="1" source="vRPE25cxpCKMiyRxNmtr-3" target="vRPE25cxpCKMiyRxNmtr-4">
          <mxGeometry width="50" height="50" relative="1" as="geometry">
            <mxPoint x="240" y="222" as="sourcePoint" />
            <mxPoint x="690" y="222" as="targetPoint" />
          </mxGeometry>
        </mxCell>
        <mxCell id="vRPE25cxpCKMiyRxNmtr-4" value="" style="shape=waypoint;sketch=0;fillStyle=solid;size=6;pointerEvents=1;points=[];fillColor=#f8cecc;resizable=0;rotatable=0;perimeter=centerPerimeter;snapToPoint=1;strokeColor=#b85450;strokeWidth=5;" vertex="1" parent="1">
          <mxGeometry x="590" y="212" width="20" height="20" as="geometry" />
        </mxCell>
        <mxCell id="vRPE25cxpCKMiyRxNmtr-6" value="&lt;font style=&quot;font-size: 14px;&quot;&gt;&lt;b&gt;02&lt;/b&gt;/15/2024&lt;/font&gt;" style="text;html=1;align=center;verticalAlign=middle;whiteSpace=wrap;rounded=0;" vertex="1" parent="1">
          <mxGeometry x="370" y="182" width="60" height="30" as="geometry" />
        </mxCell>
        <mxCell id="vRPE25cxpCKMiyRxNmtr-7" value="&lt;font style=&quot;font-size: 14px;&quot;&gt;&lt;b&gt;04&lt;/b&gt;/15/2024&lt;/font&gt;" style="text;html=1;align=center;verticalAlign=middle;whiteSpace=wrap;rounded=0;" vertex="1" parent="1">
          <mxGeometry x="570" y="182" width="60" height="30" as="geometry" />
        </mxCell>
        <mxCell id="vRPE25cxpCKMiyRxNmtr-8" value="" style="endArrow=none;html=1;rounded=0;" edge="1" parent="1" target="vRPE25cxpCKMiyRxNmtr-9">
          <mxGeometry width="50" height="50" relative="1" as="geometry">
            <mxPoint x="70" y="222" as="sourcePoint" />
            <mxPoint x="240" y="222" as="targetPoint" />
          </mxGeometry>
        </mxCell>
        <mxCell id="vRPE25cxpCKMiyRxNmtr-9" value="" style="shape=waypoint;sketch=0;fillStyle=solid;size=6;pointerEvents=1;points=[];fillColor=none;resizable=0;rotatable=0;perimeter=centerPerimeter;snapToPoint=1;" vertex="1" parent="1">
          <mxGeometry x="270" y="212" width="20" height="20" as="geometry" />
        </mxCell>
        <mxCell id="vRPE25cxpCKMiyRxNmtr-10" value="&lt;b&gt;01/16/2024&lt;/b&gt;" style="text;html=1;align=center;verticalAlign=middle;whiteSpace=wrap;rounded=0;" vertex="1" parent="1">
          <mxGeometry x="250" y="222" width="60" height="30" as="geometry" />
        </mxCell>
        <mxCell id="vRPE25cxpCKMiyRxNmtr-11" value="" style="shape=table;startSize=0;container=1;collapsible=0;childLayout=tableLayout;fontSize=11;fillColor=none;strokeColor=none;" vertex="1" parent="1">
          <mxGeometry x="100" y="292" width="250" height="174" as="geometry" />
        </mxCell>
        <mxCell id="vRPE25cxpCKMiyRxNmtr-12" value="" style="shape=tableRow;horizontal=0;startSize=0;swimlaneHead=0;swimlaneBody=0;strokeColor=inherit;top=0;left=0;bottom=0;right=0;collapsible=0;dropTarget=0;fillColor=none;points=[[0,0.5],[1,0.5]];portConstraint=eastwest;fontSize=16;" vertex="1" parent="vRPE25cxpCKMiyRxNmtr-11">
          <mxGeometry width="250" height="33" as="geometry" />
        </mxCell>
        <mxCell id="vRPE25cxpCKMiyRxNmtr-13" value="&lt;b&gt;AnchorDay: &quot;End&quot;&lt;/b&gt;" style="shape=partialRectangle;html=1;whiteSpace=wrap;connectable=0;strokeColor=inherit;overflow=hidden;fillColor=none;top=0;left=0;bottom=0;right=0;pointerEvents=1;fontSize=12;align=left;spacingLeft=5;" vertex="1" parent="vRPE25cxpCKMiyRxNmtr-12">
          <mxGeometry width="250" height="33" as="geometry">
            <mxRectangle width="250" height="33" as="alternateBounds" />
          </mxGeometry>
        </mxCell>
        <mxCell id="vRPE25cxpCKMiyRxNmtr-14" value="" style="shape=tableRow;horizontal=0;startSize=0;swimlaneHead=0;swimlaneBody=0;strokeColor=inherit;top=0;left=0;bottom=0;right=0;collapsible=0;dropTarget=0;fillColor=none;points=[[0,0.5],[1,0.5]];portConstraint=eastwest;fontSize=16;" vertex="1" parent="vRPE25cxpCKMiyRxNmtr-11">
          <mxGeometry y="33" width="250" height="37" as="geometry" />
        </mxCell>
        <mxCell id="vRPE25cxpCKMiyRxNmtr-15" value="Month 1:&lt;b&gt; 01/16&lt;/b&gt; =&amp;gt; 01/31" style="shape=partialRectangle;html=1;whiteSpace=wrap;connectable=0;strokeColor=inherit;overflow=hidden;fillColor=none;top=0;left=0;bottom=0;right=0;pointerEvents=1;fontSize=12;align=left;spacingLeft=5;" vertex="1" parent="vRPE25cxpCKMiyRxNmtr-14">
          <mxGeometry width="250" height="37" as="geometry">
            <mxRectangle width="250" height="37" as="alternateBounds" />
          </mxGeometry>
        </mxCell>
        <mxCell id="vRPE25cxpCKMiyRxNmtr-16" value="" style="shape=tableRow;horizontal=0;startSize=0;swimlaneHead=0;swimlaneBody=0;strokeColor=inherit;top=0;left=0;bottom=0;right=0;collapsible=0;dropTarget=0;fillColor=none;points=[[0,0.5],[1,0.5]];portConstraint=eastwest;fontSize=16;" vertex="1" parent="vRPE25cxpCKMiyRxNmtr-11">
          <mxGeometry y="70" width="250" height="40" as="geometry" />
        </mxCell>
        <mxCell id="vRPE25cxpCKMiyRxNmtr-17" value="Month 2: 02/01 =&amp;gt; 02/29" style="shape=partialRectangle;html=1;whiteSpace=wrap;connectable=0;strokeColor=inherit;overflow=hidden;fillColor=none;top=0;left=0;bottom=0;right=0;pointerEvents=1;fontSize=12;align=left;spacingLeft=5;" vertex="1" parent="vRPE25cxpCKMiyRxNmtr-16">
          <mxGeometry width="250" height="40" as="geometry">
            <mxRectangle width="250" height="40" as="alternateBounds" />
          </mxGeometry>
        </mxCell>
        <mxCell id="vRPE25cxpCKMiyRxNmtr-18" style="shape=tableRow;horizontal=0;startSize=0;swimlaneHead=0;swimlaneBody=0;strokeColor=inherit;top=0;left=0;bottom=0;right=0;collapsible=0;dropTarget=0;fillColor=none;points=[[0,0.5],[1,0.5]];portConstraint=eastwest;fontSize=16;" vertex="1" parent="vRPE25cxpCKMiyRxNmtr-11">
          <mxGeometry y="110" width="250" height="32" as="geometry" />
        </mxCell>
        <mxCell id="vRPE25cxpCKMiyRxNmtr-19" value="Month 3: 03/01 =&amp;gt; 03/31" style="shape=partialRectangle;html=1;whiteSpace=wrap;connectable=0;strokeColor=inherit;overflow=hidden;fillColor=none;top=0;left=0;bottom=0;right=0;pointerEvents=1;fontSize=12;align=left;spacingLeft=5;" vertex="1" parent="vRPE25cxpCKMiyRxNmtr-18">
          <mxGeometry width="250" height="32" as="geometry">
            <mxRectangle width="250" height="32" as="alternateBounds" />
          </mxGeometry>
        </mxCell>
        <mxCell id="vRPE25cxpCKMiyRxNmtr-21" style="shape=tableRow;horizontal=0;startSize=0;swimlaneHead=0;swimlaneBody=0;strokeColor=inherit;top=0;left=0;bottom=0;right=0;collapsible=0;dropTarget=0;fillColor=none;points=[[0,0.5],[1,0.5]];portConstraint=eastwest;fontSize=16;" vertex="1" parent="vRPE25cxpCKMiyRxNmtr-11">
          <mxGeometry y="142" width="250" height="32" as="geometry" />
        </mxCell>
        <mxCell id="vRPE25cxpCKMiyRxNmtr-22" value="Month 4: 04/01 =&amp;gt;&lt;b&gt; 04/15&lt;/b&gt;" style="shape=partialRectangle;html=1;whiteSpace=wrap;connectable=0;strokeColor=inherit;overflow=hidden;fillColor=none;top=0;left=0;bottom=0;right=0;pointerEvents=1;fontSize=12;align=left;spacingLeft=5;" vertex="1" parent="vRPE25cxpCKMiyRxNmtr-21">
          <mxGeometry width="250" height="32" as="geometry">
            <mxRectangle width="250" height="32" as="alternateBounds" />
          </mxGeometry>
        </mxCell>
        <mxCell id="vRPE25cxpCKMiyRxNmtr-23" value="" style="shape=table;startSize=0;container=1;collapsible=0;childLayout=tableLayout;fontSize=11;fillColor=none;strokeColor=none;" vertex="1" parent="1">
          <mxGeometry x="360" y="292" width="250" height="172" as="geometry" />
        </mxCell>
        <mxCell id="vRPE25cxpCKMiyRxNmtr-24" value="" style="shape=tableRow;horizontal=0;startSize=0;swimlaneHead=0;swimlaneBody=0;strokeColor=inherit;top=0;left=0;bottom=0;right=0;collapsible=0;dropTarget=0;fillColor=none;points=[[0,0.5],[1,0.5]];portConstraint=eastwest;fontSize=16;" vertex="1" parent="vRPE25cxpCKMiyRxNmtr-23">
          <mxGeometry width="250" height="33" as="geometry" />
        </mxCell>
        <mxCell id="vRPE25cxpCKMiyRxNmtr-25" value="&lt;b&gt;AnchorDay: &quot;15&quot;&lt;/b&gt;" style="shape=partialRectangle;html=1;whiteSpace=wrap;connectable=0;strokeColor=inherit;overflow=hidden;fillColor=none;top=0;left=0;bottom=0;right=0;pointerEvents=1;fontSize=12;align=left;spacingLeft=5;" vertex="1" parent="vRPE25cxpCKMiyRxNmtr-24">
          <mxGeometry width="250" height="33" as="geometry">
            <mxRectangle width="250" height="33" as="alternateBounds" />
          </mxGeometry>
        </mxCell>
        <mxCell id="vRPE25cxpCKMiyRxNmtr-26" value="" style="shape=tableRow;horizontal=0;startSize=0;swimlaneHead=0;swimlaneBody=0;strokeColor=inherit;top=0;left=0;bottom=0;right=0;collapsible=0;dropTarget=0;fillColor=none;points=[[0,0.5],[1,0.5]];portConstraint=eastwest;fontSize=16;" vertex="1" parent="vRPE25cxpCKMiyRxNmtr-23">
          <mxGeometry y="33" width="250" height="35" as="geometry" />
        </mxCell>
        <mxCell id="vRPE25cxpCKMiyRxNmtr-27" value="" style="shape=partialRectangle;html=1;whiteSpace=wrap;connectable=0;strokeColor=inherit;overflow=hidden;fillColor=none;top=0;left=0;bottom=0;right=0;pointerEvents=1;fontSize=12;align=left;spacingLeft=5;" vertex="1" parent="vRPE25cxpCKMiyRxNmtr-26">
          <mxGeometry width="250" height="35" as="geometry">
            <mxRectangle width="250" height="35" as="alternateBounds" />
          </mxGeometry>
        </mxCell>
        <mxCell id="vRPE25cxpCKMiyRxNmtr-28" value="" style="shape=tableRow;horizontal=0;startSize=0;swimlaneHead=0;swimlaneBody=0;strokeColor=inherit;top=0;left=0;bottom=0;right=0;collapsible=0;dropTarget=0;fillColor=none;points=[[0,0.5],[1,0.5]];portConstraint=eastwest;fontSize=16;" vertex="1" parent="vRPE25cxpCKMiyRxNmtr-23">
          <mxGeometry y="68" width="250" height="40" as="geometry" />
        </mxCell>
        <mxCell id="vRPE25cxpCKMiyRxNmtr-29" value="Month 1: 01/16 =&amp;gt; 02/15" style="shape=partialRectangle;html=1;whiteSpace=wrap;connectable=0;strokeColor=inherit;overflow=hidden;fillColor=none;top=0;left=0;bottom=0;right=0;pointerEvents=1;fontSize=12;align=left;spacingLeft=5;" vertex="1" parent="vRPE25cxpCKMiyRxNmtr-28">
          <mxGeometry width="250" height="40" as="geometry">
            <mxRectangle width="250" height="40" as="alternateBounds" />
          </mxGeometry>
        </mxCell>
        <mxCell id="vRPE25cxpCKMiyRxNmtr-30" style="shape=tableRow;horizontal=0;startSize=0;swimlaneHead=0;swimlaneBody=0;strokeColor=inherit;top=0;left=0;bottom=0;right=0;collapsible=0;dropTarget=0;fillColor=none;points=[[0,0.5],[1,0.5]];portConstraint=eastwest;fontSize=16;" vertex="1" parent="vRPE25cxpCKMiyRxNmtr-23">
          <mxGeometry y="108" width="250" height="32" as="geometry" />
        </mxCell>
        <mxCell id="vRPE25cxpCKMiyRxNmtr-31" value="Month 2: 02/16 =&amp;gt; 03/15" style="shape=partialRectangle;html=1;whiteSpace=wrap;connectable=0;strokeColor=inherit;overflow=hidden;fillColor=none;top=0;left=0;bottom=0;right=0;pointerEvents=1;fontSize=12;align=left;spacingLeft=5;" vertex="1" parent="vRPE25cxpCKMiyRxNmtr-30">
          <mxGeometry width="250" height="32" as="geometry">
            <mxRectangle width="250" height="32" as="alternateBounds" />
          </mxGeometry>
        </mxCell>
        <mxCell id="vRPE25cxpCKMiyRxNmtr-32" style="shape=tableRow;horizontal=0;startSize=0;swimlaneHead=0;swimlaneBody=0;strokeColor=inherit;top=0;left=0;bottom=0;right=0;collapsible=0;dropTarget=0;fillColor=none;points=[[0,0.5],[1,0.5]];portConstraint=eastwest;fontSize=16;" vertex="1" parent="vRPE25cxpCKMiyRxNmtr-23">
          <mxGeometry y="140" width="250" height="32" as="geometry" />
        </mxCell>
        <mxCell id="vRPE25cxpCKMiyRxNmtr-33" value="Month 3: 04/16 =&amp;gt;&lt;b&gt; 04/15&lt;/b&gt;" style="shape=partialRectangle;html=1;whiteSpace=wrap;connectable=0;strokeColor=inherit;overflow=hidden;fillColor=none;top=0;left=0;bottom=0;right=0;pointerEvents=1;fontSize=12;align=left;spacingLeft=5;" vertex="1" parent="vRPE25cxpCKMiyRxNmtr-32">
          <mxGeometry width="250" height="32" as="geometry">
            <mxRectangle width="250" height="32" as="alternateBounds" />
          </mxGeometry>
        </mxCell>
        <mxCell id="vRPE25cxpCKMiyRxNmtr-34" value="&lt;b&gt;&lt;font style=&quot;font-size: 20px;&quot;&gt;Monthly&lt;/font&gt;&lt;/b&gt;" style="text;html=1;align=center;verticalAlign=middle;whiteSpace=wrap;rounded=0;" vertex="1" parent="1">
          <mxGeometry x="90" y="80" width="60" height="30" as="geometry" />
        </mxCell>
        <mxCell id="vRPE25cxpCKMiyRxNmtr-36" value="&lt;b&gt;Start Date&lt;/b&gt;" style="text;html=1;align=center;verticalAlign=middle;whiteSpace=wrap;rounded=0;" vertex="1" parent="1">
          <mxGeometry x="370" y="152" width="60" height="30" as="geometry" />
        </mxCell>
        <mxCell id="vRPE25cxpCKMiyRxNmtr-37" value="&lt;b&gt;End Date&lt;/b&gt;" style="text;html=1;align=center;verticalAlign=middle;whiteSpace=wrap;rounded=0;" vertex="1" parent="1">
          <mxGeometry x="570" y="152" width="60" height="30" as="geometry" />
        </mxCell>
      </root>
    </mxGraphModel>
  </diagram>
</mxfile>
